HIERARCHY
ROOT hip
{
	OFFSET 0.000000 0.000000 0.000000 
	CHANNELS 6 Xposition Yposition Zposition Xrotation Zrotation Yrotation
	JOINT abdomen
	{
		OFFSET 0.000000 3.402643 0.000000 
		CHANNELS 3 Xrotation Zrotation Yrotation
		JOINT chest
		{
			OFFSET 0.000000 8.438565 -0.680529 
			CHANNELS 3 Xrotation Zrotation Yrotation
			JOINT neck
			{
				OFFSET 0.000000 10.207942 -0.272212 
				CHANNELS 3 Xrotation Zrotation Yrotation
				JOINT head
				{
					OFFSET 0.000000 3.130431 0.000000 
					CHANNELS 3 Xrotation Zrotation Yrotation
					End Site
					{
						OFFSET 0.000000 3.130435 0.000000 
					}
				}
			}
			JOINT lCollar
			{
				OFFSET 3.470700 6.669187 -0.816635 
				CHANNELS 3 Yrotation Zrotation Xrotation
				JOINT lShldr
				{
					OFFSET 3.198488 0.000000 0.000000 
					CHANNELS 3 Zrotation Yrotation Xrotation
					JOINT lForeArm
					{
						OFFSET 10.139888 0.000000 0.000000 
						CHANNELS 3 Yrotation Zrotation Xrotation
						JOINT lHand
						{
							OFFSET 8.370511 0.000000 0.000000 
							CHANNELS 3 Zrotation Yrotation Xrotation
							End Site
							{
								OFFSET 4.083176 0.000000 0.000000 
							}
						}
					}
				}
			}
			JOINT rCollar
			{
				OFFSET -3.470700 6.669187 -0.816635 
				CHANNELS 3 Yrotation Zrotation Xrotation
				JOINT rShldr
				{
					OFFSET -3.198488 0.000000 0.000000 
					CHANNELS 3 Zrotation Yrotation Xrotation
					JOINT rForeArm
					{
						OFFSET -10.139888 0.000000 0.000000 
						CHANNELS 3 Yrotation Zrotation Xrotation
						JOINT rHand
						{
							OFFSET -8.370511 0.000000 0.000000 
							CHANNELS 3 Zrotation Yrotation Xrotation
							End Site
							{
								OFFSET -4.083176 0.000000 0.000000 
							}
						}
					}
				}
			}
		}
	}
	JOINT lThigh
	{
		OFFSET 5.308129 -1.633274 1.361059 
		CHANNELS 3 Xrotation Zrotation Yrotation
		JOINT lShin
		{
			OFFSET -2.041588 -20.007561 0.000000 
			CHANNELS 3 Xrotation Zrotation Yrotation
			JOINT lFoot
			{
				OFFSET 0.000000 -19.190928 -1.224953 
				CHANNELS 3 Xrotation Yrotation Zrotation
				End Site
				{
					OFFSET 0.000000 -2.449906 4.627600 
				}
			}
		}
	}
	JOINT rThigh
	{
		OFFSET -5.308129 -1.633274 1.361059 
		CHANNELS 3 Xrotation Zrotation Yrotation
		JOINT rShin
		{
			OFFSET 2.041588 -20.007561 0.000000 
			CHANNELS 3 Xrotation Zrotation Yrotation
			JOINT rFoot
			{
				OFFSET 0.000000 -19.190928 -1.224953 
				CHANNELS 3 Xrotation Yrotation Zrotation
				End Site
				{
					OFFSET 0.000000 -2.449906 4.627600 
				}
			}
		}
	}
}
MOTION
Frames: 11
Frame Time: 0.033333
-0.455715 41.093040 4.262914 23.160872 -4.353528 1.713689 0.000000 0.000000 0.000000 -1.385808 3.110242 7.179078 45.315636 5.390610 0.137949 -10.170762 -2.083615 -4.426934 1.984478 -2.009691 0.058865 -100.270348 -13.383617 3.471037 -39.443848 7.060288 62.567741 -9.098215 -7.752119 -57.411106 -2.001953 1.992188 0.000000 69.148842 10.604550 69.881233 38.538525 -32.557335 12.165633 29.118668 -4.960309 -79.795677 -44.343136 9.940310 14.820628 68.613251 12.259948 -0.151788 -32.769077 2.958173 -6.951530 -44.609737 -1.328439 2.673545 64.605072 -0.219310 4.988667 -26.445415 -9.288398 13.938823 
-0.400366 43.652466 5.032431 21.634966 -3.794020 2.886818 0.000000 0.000000 0.000000 -2.098272 2.539286 7.048346 49.233391 6.787066 0.207103 -9.259728 -1.886539 -5.266598 1.984478 -2.009691 0.058865 -100.305176 -11.007317 3.535331 -41.219509 6.543061 62.925426 -11.311474 -7.121470 -57.111771 -2.001953 1.992188 0.000000 66.567497 7.719208 68.901863 43.978985 -31.130810 18.947020 31.944372 -6.496461 -79.961182 -34.503658 7.104987 15.939411 55.075390 13.608399 0.632384 -25.155346 -1.555684 1.498022 -34.283558 -2.626836 1.698365 51.712852 -1.765214 3.383209 -14.176836 -4.440496 24.168520 
-0.417343 46.312614 5.227149 23.521135 -3.313084 3.785388 0.000000 0.000000 0.000000 -4.673877 1.880710 6.927772 51.411942 7.011674 0.207121 -10.946962 -1.782574 -4.084305 1.984478 -2.009691 0.058865 -98.592804 -9.487347 2.728612 -41.506451 5.379928 60.020424 -8.245670 -7.534820 -57.725193 -2.001953 1.992188 0.000000 65.845123 6.551091 68.678207 42.848141 -32.225891 19.708773 31.576565 -2.892861 -79.819527 -31.215887 5.368558 15.999136 41.516418 12.056211 0.942424 -5.459052 -7.044996 6.388057 -32.312431 -3.427531 1.355539 41.457603 -1.461248 2.467191 2.791527 -2.418789 17.895880 
-0.517785 49.429737 5.326881 25.373606 -4.623587 2.752522 0.000000 0.000000 0.000000 -6.504329 3.496743 7.318412 53.860390 6.201159 0.118612 -12.461721 -1.598631 -3.468170 1.984478 -2.009691 0.058865 -95.531700 -7.191431 1.223838 -43.903938 5.024521 63.446022 -8.240154 -7.929936 -57.456310 -2.001953 1.992188 0.000000 63.721893 5.432328 67.578560 42.202629 -35.004398 22.358927 33.304367 -1.530815 -79.771408 -29.147980 7.762073 17.052696 27.772402 8.658106 0.907326 9.603705 -19.321781 20.749279 -29.952490 -2.353323 1.573299 26.997822 0.185383 1.434273 14.499311 2.279236 10.076447 
-0.581568 51.154053 5.379994 24.024420 -4.878953 2.282923 0.000000 0.000000 0.000000 -4.506732 3.680616 7.339747 54.954628 6.435533 0.118638 -13.521761 -1.580393 -2.608584 1.984135 -2.010029 0.049111 -94.539413 -6.329709 0.725914 -44.632568 5.129587 63.286369 -8.845263 -7.651938 -57.334213 -2.001953 1.992188 0.000000 61.667294 6.375931 66.162079 43.104973 -31.687895 18.843357 31.798683 -5.975054 -79.821014 -27.244837 8.290273 17.517498 27.965019 7.805710 0.717612 2.279182 -12.380996 3.789136 -28.217070 -1.581937 1.707790 23.866665 0.425633 1.243939 17.697887 -1.569654 19.721432 
-0.818482 52.293640 5.152898 24.854992 -6.247579 1.600407 0.000000 0.000000 0.000000 -4.203467 4.801345 7.605324 54.562622 6.289052 0.108915 -13.057005 -1.434366 -2.324957 1.984135 -2.010029 0.049111 -94.648193 -7.403863 0.765601 -43.220879 5.091384 62.575932 -8.946433 -8.530428 -57.089523 -2.001953 1.992188 0.000000 63.945904 7.647049 67.320793 40.165699 -34.098358 18.933664 32.919025 -3.229881 -79.897346 -29.860600 10.369333 17.748167 31.116682 6.808495 0.334441 -2.838819 -9.186301 9.546915 -30.997190 0.028841 2.351584 26.257629 1.293358 1.640322 14.173388 -7.317037 15.641526 
-0.704898 53.053364 4.894156 23.908491 -4.799551 2.655174 0.000000 0.000000 0.000000 -1.351131 3.294122 7.209439 53.722763 7.001921 0.178041 -8.615898 -1.412823 -3.848893 1.983793 -2.010367 0.039358 -96.315063 -9.385979 1.583037 -44.025436 5.451008 64.256317 -13.033605 -2.988985 -57.613342 -2.001953 1.992188 0.000000 65.004707 8.760141 67.745857 42.170227 -35.777775 21.649689 35.719860 -4.086531 -80.140724 -30.587927 7.768531 16.828159 32.756596 7.829033 0.488661 -7.419129 -11.592972 25.917551 -31.956293 -2.567904 1.597026 29.258665 1.117865 1.880081 11.002032 -3.013876 5.084173 
-0.774326 53.158123 4.769715 23.977272 -5.114266 1.940692 0.000000 0.000000 0.000000 -0.500778 3.787407 7.311156 53.231495 5.742181 0.088427 -10.887628 -1.043219 -3.272186 1.983793 -2.010367 0.039358 -96.353188 -10.328886 1.584744 -43.324009 4.372316 65.780098 -12.540809 -4.058480 -57.294651 -2.001953 1.992188 0.000000 65.007584 9.628736 67.585083 42.584274 -35.611423 21.143541 33.959610 -2.844547 -79.858574 -32.092407 8.599103 16.813274 35.582790 7.276909 0.189930 -7.869462 -6.823549 22.941046 -33.383450 -1.874669 1.869303 30.666306 1.547381 2.109132 10.658009 -3.795998 1.766306 
-0.886205 53.058323 4.461205 25.975313 -4.871364 1.509253 0.000000 0.000000 0.000000 -1.387179 3.381098 7.239258 53.246601 5.166014 0.049509 -11.150571 -0.662806 -3.525719 1.983793 -2.010367 0.039358 -94.704483 -8.842772 0.782459 -46.165199 2.707344 62.863880 -12.421430 -1.442847 -57.956730 -2.001953 1.992188 0.000000 65.738197 11.385666 67.697075 41.299583 -35.738834 21.704773 34.869034 -3.958045 -80.035744 -35.727753 8.659579 16.178532 37.542301 7.041484 0.043159 -8.456926 -5.463644 23.563791 -36.480213 -1.542698 2.142426 30.671947 0.756648 1.927803 12.527348 -1.438711 3.388271 
-1.001966 52.188900 4.371865 26.935598 -4.939831 1.450034 0.000000 0.000000 0.000000 -1.472306 3.052238 7.159043 53.070824 5.166014 0.049509 -10.345378 -0.536493 -2.744295 1.983450 -2.010705 0.029604 -96.092339 -11.170323 1.448041 -42.592144 5.125007 64.048859 -8.975521 -2.843203 -57.992050 -2.001953 1.992188 0.000000 64.637428 11.190436 67.082306 42.647457 -37.463585 25.056372 39.514881 -2.067171 -80.504349 -37.808395 8.806346 15.820224 37.650501 6.738951 -0.032307 -7.993965 -6.288397 23.997095 -37.887863 -1.532976 2.231249 30.480371 0.580836 1.864661 14.421333 0.526953 4.312529 
-1.068902 51.083920 4.211870 27.757946 -5.231565 1.882324 0.000000 0.000000 0.000000 -1.418928 3.294051 7.219190 52.601990 5.068357 0.049500 -10.576957 -0.633611 -3.457252 1.983450 -2.010705 0.029604 -95.623604 -11.126685 1.214534 -44.059319 5.042619 62.965805 -10.425862 -4.313565 -57.641960 -2.001953 1.992188 0.000000 66.273575 12.204442 67.851181 38.278252 -40.075520 26.757944 41.504276 4.649352 -80.107292 -40.077164 8.847294 15.379318 37.907227 7.237417 0.077022 -4.560491 -6.979855 18.077360 -39.184910 -1.767520 2.204379 29.751560 1.254763 1.948277 18.642866 -2.967437 4.563161 
